# xmcd CD database file
#
# Track frame offsets:
#	150
#	10221
#	33706
#	48297
#	62991
#	75621
#	87322
#	105337
#	118903
#	133031
#	150547
#	163876
#	176517
#	189711
#	199321
#	214515
#	233428
#	247447
#	258799
#	269726
#	286544
#
# Disc length: 3948 seconds
#
# Revision: 0
# Processed by: cddbd v1.5.1PL2 Copyright (c) Steve Scherf et al.
# Submitted via: CDex 1.51
#
DISCID=2c0f6a15
DTITLE=0420-Sammy Davis Jr. - Special Hits
DYEAR=1975
DGENRE=Jazz
TTITLE0=All That Jazz
TTITLE1=Birth of the Blues
TTITLE2=Bye Bye Blackbird 
TTITLE3=Candy Man 
TTITLE4=Hey There
TTITLE5=If I Ruled the World
TTITLE6=It Ain't Necessarily So
TTITLE7=I've Gotta Be Me
TTITLE8=Me and My Shadow - with Sinatra
TTITLE9=Mr. Bojangles 
TTITLE10=New York City Blues - with Count Basie
TTITLE11=Oceans Eleven
TTITLE12=Singing In The Rain
TTITLE13=Something's Gotta Give
TTITLE14=That Old Black Magic
TTITLE15=The Girl From Ipanema - with Count Bsie
TTITLE16=Too Close For Comfort
TTITLE17=Too Darn Hot
TTITLE18=Medley- Volare - with Dean Martin
TTITLE19=What Kind Of Fool Am I
TTITLE20=You Can Count On Me
EXTD=YEAR: 1975
EXTT0=
EXTT1=
EXTT2=
EXTT3=
EXTT4=
EXTT5=
EXTT6=
EXTT7=
EXTT8=
EXTT9=
EXTT10=
EXTT11=
EXTT12=
EXTT13=
EXTT14=
EXTT15=
EXTT16=
EXTT17=
EXTT18=
EXTT19=
EXTT20=
PLAYORDER=
